<svg width="292" height="328" viewBox="0 0 292 328" fill="none" xmlns="http://www.w3.org/2000/svg">
<path d="M60.9959 142.845C66.7996 142.876 71.715 142.779 76.6136 142.961C84.9228 143.235 93.1166 143.877 100.806 147.642C108.603 151.47 112.839 157.717 112.646 166.218C112.519 171.437 110.977 176.608 109.884 181.751C109.446 183.76 108.435 185.678 107.347 188.562C111.429 186.492 114.61 184.816 117.857 183.275C125.776 179.476 133.547 175.35 141.675 172.104C152.791 167.601 161.234 171.561 165.37 182.897C166.988 187.344 167.535 192.23 168.522 196.938C168.81 198.355 168.891 199.798 169.106 201.509C174.792 195.41 180.111 189.532 185.619 183.908C198.484 170.791 210.513 178.457 215.385 190.268C216.689 193.426 217.242 196.969 217.821 200.382C218.131 202.678 217.196 204.881 214.657 205.195C212.361 205.506 211.201 203.681 210.58 201.59C209.938 199.536 209.431 197.415 208.576 195.478C207.573 193.215 206.534 190.931 205.107 188.904C201.08 183.212 196.65 182.386 191.162 186.723C187.283 189.776 183.835 193.414 180.393 196.96C177.189 200.258 174.125 203.733 171.06 207.208C169.46 208.979 167.788 210.708 165.191 210.123C162.207 209.458 161.712 206.815 161.243 204.379C160.626 201.28 160.48 198.117 159.692 195.064C158.748 191.199 157.711 187.329 156.192 183.709C154.116 178.806 151.362 177.409 146.219 178.817C141.303 180.165 136.35 181.828 131.705 183.957C121.777 188.569 112.054 193.493 102.311 198.452C100 199.62 97.9153 200.148 95.892 198.403C93.9561 196.756 94.2914 194.592 95.1485 192.44C96.685 188.613 98.4075 184.796 99.7427 180.9C100.9 177.478 102.027 173.943 102.539 170.39C103.93 160.897 100.584 155.693 91.6161 152.392C84.8776 149.897 77.8693 148.786 70.7331 148.563C65.5916 148.385 60.4485 148.543 55.3319 148.572C52.6237 148.596 49.8225 148.614 48.6061 145.554C47.4923 142.65 49.2282 140.477 51.0306 138.438C51.8096 137.589 52.7121 136.859 53.5786 136.108C55.3475 134.628 57.0498 133.013 58.9575 131.708C73.0792 121.916 75.0367 108.275 71.141 92.9394C70.4145 90.1144 68.7982 87.4972 67.5026 84.8247C66.8728 83.4988 65.8237 82.3158 65.3647 80.9442C65.0125 79.971 64.9213 78.3788 65.4976 77.7974C66.1155 77.1438 67.6869 77.0888 68.653 77.1654C70.7504 77.366 72.8626 78.8742 74.0753 80.4404C76.4647 83.5519 78.7442 86.9368 80.1132 90.5658C83.1783 98.5901 83.642 107.037 82.6065 115.581C81.7213 122.864 77.9591 128.63 72.6508 133.408C69.1434 136.483 65.4307 139.247 60.9959 142.845Z" fill="black"/>
</svg>
